<svg xmlns="http://www.w3.org/2000/svg" width="24.259" height="24.259" viewBox="0 0 24.259 24.259">
    <defs>
        <style>
            .cls-1{fill:none}.cls-2{clip-path:url(#clip-path)}.cls-3{fill:#767676}
        </style>
        <clipPath id="clip-path">
            <path d="M0 0h24.259v24.259H0z" class="cls-1"/>
        </clipPath>
    </defs>
    <g id="Search" class="cls-2">
        <path id="패스_2" d="M3.032 10.613a7.507 7.507 0 0 1 7.581-7.581 7.507 7.507 0 0 1 7.581 7.581 7.507 7.507 0 0 1-7.581 7.581 7.507 7.507 0 0 1-7.581-7.581zM21.681 23.8a1.5 1.5 0 1 0 2.119-2.119l-4.7-4.7a10.381 10.381 0 0 0 2.123-6.368A10.548 10.548 0 0 0 10.613 0 10.548 10.548 0 0 0 0 10.613a10.548 10.548 0 0 0 10.613 10.613 10.381 10.381 0 0 0 6.368-2.126z" class="cls-3" data-name="패스 2"/>
    </g>
</svg>
